<?xml version="1.0" encoding="UTF-8" standalone="no"?>
<svg
   xmlns:dc="http://purl.org/dc/elements/1.1/"
   xmlns:cc="http://creativecommons.org/ns#"
   xmlns:rdf="http://www.w3.org/1999/02/22-rdf-syntax-ns#"
   xmlns:svg="http://www.w3.org/2000/svg"
   xmlns="http://www.w3.org/2000/svg"
   id="svg8"
   version="1.1"
   viewBox="0 0 125 120"
   height="120mm"
   width="125mm">
  <defs
     id="defs2" />
  <metadata
     id="metadata5">
    <rdf:RDF>
      <cc:Work
         rdf:about="">
        <dc:format>image/svg+xml</dc:format>
        <dc:type
           rdf:resource="http://purl.org/dc/dcmitype/StillImage" />
        <dc:title></dc:title>
      </cc:Work>
    </rdf:RDF>
  </metadata>
  <g
     transform="translate(0,-177)"
     id="layer1">
    <path
       id="path828-3"
       d="m 18.676799,296.78061 c 0.171009,-1.12534 0.37213,-2.26868 0.965752,-5.49011 0.328966,-1.78521 0.385586,-17.64366 0.0684,-19.15962 -0.08873,-0.42409 -0.50333,-1.53332 -0.921331,-2.46497 -1.02495,-2.28442 -1.385412,-1.99277 -1.17384,0.94976 0.160633,2.23406 0.153565,2.27232 -0.309376,1.6749 -1.305434,-1.68467 -1.635275,-2.01858 -1.815942,-1.83833 -0.296423,0.29573 0.385182,6.04727 0.973776,8.21696 0.284336,1.04812 0.767,2.53504 1.072589,3.30425 0.305586,0.76921 0.483757,1.47043 0.395935,1.55825 -0.08782,0.0878 -0.571695,-0.15458 -1.07527,-0.53868 -1.433596,-1.09345 -1.674439,-0.97574 -1.223146,0.59784 0.414685,1.44591 0.03036,1.48439 -1.34045,0.1342 -0.707037,-0.69641 -1.362197,-1.18952 -1.455909,-1.09581 -0.350005,0.35001 0.222085,3.1571 0.929071,4.55871 0.402958,0.79887 0.676869,1.50827 0.60869,1.57645 -0.06818,0.0682 -0.636283,-0.22853 -1.262455,-0.65935 -0.626175,-0.43082 -1.265874,-0.78331 -1.421556,-0.78331 -0.339183,0 -0.356893,1.0829 -0.04003,2.4474 0.385955,1.66201 -0.54572,1.30202 -2.9528561,-1.14096 -3.472127,-3.52382 -5.21864,-7.91152 -5.797732,-14.56542 -0.610281,-7.01228 1.386634,-21.50026 4.663817,-33.83685 2.8709191,-10.80725 4.2578941,-15.15463 5.4563331,-17.10249 0.451848,-0.73441 0.476663,-0.99093 0.214239,-2.21458 -0.347122,-1.61858 -0.165895,-3.0835 0.556687,-4.49988 0.483163,-0.94707 0.490617,-1.08998 0.112595,-2.15853 -0.744914,-2.10564 -0.955217,-3.50675 -0.933432,-6.21884 0.04541,-5.65404 2.622293,-10.49681 8.028464,-15.088 1.273307,-1.08136 2.315103,-2.07839 2.315103,-2.21563 0,-0.46068 4.084338,-4.53174 5.688542,-5.67006 2.190447,-1.5543 4.973707,-2.90483 7.728925,-3.75031 2.089915,-0.64132 2.740295,-0.71458 6.426285,-0.72381 3.963524,-0.01 4.185327,0.0189 6.614583,0.85971 3.444687,1.19227 5.811295,2.74498 9.04535,5.93457 2.261235,2.23016 2.928435,3.07898 3.77263,4.79964 1.406565,2.86691 2.728677,4.17557 4.909103,4.85915 6.899986,2.16322 6.584195,1.93318 6.119089,4.45741 -0.37175,2.01756 -0.224737,2.33937 1.189945,2.60476 2.132582,0.40008 2.883493,1.2977 2.249541,2.68906 -0.364988,0.80106 -0.388038,1.68783 -0.0439,1.68783 0.490532,0 1.33323,1.16498 1.33323,1.84311 0,0.37674 -0.189878,0.95607 -0.421949,1.2874 -0.59,0.84234 -0.332269,1.55707 1.187971,3.29433 0.720509,0.82337 1.383729,1.72926 1.47382,2.01309 0.0929,0.29278 -0.0794,1.03333 -0.39819,1.71161 -0.434419,0.92419 -0.94137,1.43343 -2.2335,2.24359 -0.91935,0.57643 -1.95141,1.13126 -2.29349,1.23297 -0.921189,0.27388 -5.473784,2.71837 -6.451422,3.46405 -1.680794,1.28201 -4.320061,5.86617 -6.100127,10.59537 -0.681993,1.81189 -2.35221,10.78934 -2.08711,11.21828 0.08993,0.1455 1.732661,1.04339 3.650522,1.99531 3.902342,1.9369 4.407958,2.34182 6.234358,4.99279 2.31463,3.35961 2.676617,4.30507 2.676617,6.99094 0,2.31622 0.01913,2.38792 0.927817,3.47554 0.510294,0.61078 0.987454,1.36619 1.060344,1.67868 0.0729,0.31248 0.161391,2.35174 0.196671,4.53169 l 0.0641,3.96353 2.345859,1.79115 c 1.29022,0.98513 2.528971,1.79115 2.752782,1.79115 0.855587,0 8.504074,-9.0994 11.119764,-13.22916 0.96962,-1.53089 4.01582,-7.87281 5.2741,-10.98021 3.524585,-8.70417 4.292125,-10.9651 4.561195,-13.43586 0.67887,-6.23398 0.90884,-7.8402 1.33409,-9.31831 0.90965,-3.16178 3.00411,-7.68897 4.80228,-10.38011 0.99489,-1.48897 1.80889,-2.97302 1.80889,-3.29791 0,-0.32489 -1.02191,-2.78045 -2.27091,-5.45681 -1.99473,-4.27432 -2.45386,-5.04772 -3.77528,-6.35939 -2.25919,-2.24253 -4.007975,-6.3311 -4.007975,-9.37043 0,-3.17162 2.432675,-1.78753 4.524155,2.57403 0.99076,2.06615 1.67341,5.15703 1.44897,6.56063 -0.15872,0.99255 0.0272,1.49791 2.13472,5.80185 1.5947,3.2567 2.44286,4.7146 2.74279,4.7146 0.23882,0 0.70897,-0.29247 1.04479,-0.64993 1.67962,-1.78788 3.68356,-2.52595 4.65938,-1.7161 0.6126,0.50842 0.44073,1.35421 -0.56159,2.76375 -2.64007,3.71268 -3.4325,6.2133 -1.43679,4.53403 2.20086,-1.85191 4.43688,0.39656 2.88748,2.90355 -0.64099,1.03714 -0.52601,1.33743 0.62643,1.63605 0.84468,0.21888 1.02275,0.50907 1.37143,2.23485 0.10218,0.50575 0.4164,0.83869 1.03578,1.09748 1.11938,0.46771 1.144,0.51162 1.5216,2.7136 l 0.31297,1.82512 -1.42979,3.1689 c -1.00922,2.2368 -2.0282,3.95671 -3.46421,5.84721 -2.21002,2.90946 -4.36949,6.9793 -6.51081,12.27066 -1.46345,3.61625 -3.76355,10.77616 -3.76355,11.71539 0,1.50431 -3.76348,11.22069 -6.47906,16.72732 -5.384265,10.91822 -9.342835,14.41979 -16.30174,14.41979 -2.152372,0 -5.95735,-0.84459 -8.268912,-1.83543 -0.700328,-0.30021 -1.322998,-0.54582 -1.383696,-0.54582 -0.0607,0 -0.110355,0.34745 -0.110355,0.77211 0,1.75371 2.524392,1.60914 -28.097397,1.60914 H 18.505922 Z m 85.071481,-94.02629 c 0,-0.76694 -1.19343,-3.67053 -1.80794,-4.39872 -1.196,-1.41721 -1.00759,0.32079 0.34419,3.17501 0.94097,1.9868 1.46375,2.42385 1.46375,1.22371 z"
       style="fill:#4c91b1;stroke-width:0.26458332" />
  </g>
</svg>
