<?xml version="1.0" encoding="UTF-8" standalone="no"?>
<svg
   xmlns:dc="http://purl.org/dc/elements/1.1/"
   xmlns:cc="http://creativecommons.org/ns#"
   xmlns:rdf="http://www.w3.org/1999/02/22-rdf-syntax-ns#"
   xmlns:svg="http://www.w3.org/2000/svg"
   xmlns="http://www.w3.org/2000/svg"
   id="svg8"
   version="1.1"
   viewBox="0 0 210 297"
   height="297mm"
   width="210mm">
  <defs
     id="defs2" />
  <metadata
     id="metadata5">
    <rdf:RDF>
      <cc:Work
         rdf:about="">
        <dc:format>image/svg+xml</dc:format>
        <dc:type
           rdf:resource="http://purl.org/dc/dcmitype/StillImage" />
        <dc:title></dc:title>
      </cc:Work>
    </rdf:RDF>
  </metadata>
  <g
     id="layer1">
    <path
       id="path1210"
       d="m 111.29307,41.522865 c -0.1679,-0.0081 -0.60486,7.701239 -0.64769,11.831712 -0.0257,2.476495 0.12909,6.142635 0.34395,8.147173 0.21486,2.004537 0.76175,7.489894 1.21524,12.189511 0.45349,4.699619 1.26461,10.765675 1.80233,13.480271 1.8622,9.401216 2.94701,26.964388 2.94936,47.743878 8.8e-4,8.29376 0.12957,11.47496 0.47817,11.82355 0.37093,0.37095 0.36578,0.4768 -0.0237,0.4768 -0.38042,0 -0.49035,1.31261 -0.45806,5.4646 0.0491,6.31429 -0.59229,28.18891 -1.19159,40.63751 -1.93804,40.25689 -5.45123,68.28454 -9.76368,77.89395 -1.82178,4.05948 -4.65722,6.0582 -14.077965,9.92424 -5.02596,2.06252 -9.323156,4.24336 -11.072904,5.61972 -1.080751,0.85012 -0.914666,0.89373 1.335854,0.34992 0.874346,-0.21128 5.70309,-1.10581 10.730587,-1.98788 13.358658,-2.3438 19.196528,-4.10156 22.653858,-6.82111 0.98981,-0.77857 1.06066,-1.01637 0.85552,-2.87275 l -0.22359,-2.02403 0.72185,1.51708 c 0.55673,1.16983 0.67798,2.13167 0.52978,4.2029 -0.12983,1.81452 0.0169,3.40508 0.45235,4.90302 0.37099,1.27617 0.64443,3.65739 0.64443,5.61022 0,3.60945 0.0771,3.76133 2.15144,4.25724 0.67484,0.16133 2.7876,0.31179 4.6952,0.33417 4.77008,0.0559 4.75814,0.0769 4.60037,-8.06839 -0.10007,-5.16588 -0.21929,-6.20599 -0.71615,-6.24458 -0.47337,-0.0368 -0.4627,-0.0816 0.0516,-0.21871 0.43203,-0.11508 0.80252,-0.96005 1.11281,-2.53723 0.25586,-1.30055 0.63054,-2.36471 0.83271,-2.36471 0.2146,0 0.22941,0.37229 0.0356,0.89438 -0.18258,0.49181 -0.44698,1.52489 -0.58765,2.29597 l -0.25565,1.40215 2.75131,0.70882 c 3.24534,0.83602 8.43331,3.80981 11.86025,6.79854 2.14471,1.87048 2.63064,2.10999 4.721,2.32695 1.2816,0.13302 3.13504,0.0536 4.11868,-0.17659 0.98363,-0.23014 3.71085,-0.41958 6.06066,-0.42111 2.3498,-0.002 4.27246,-0.12825 4.27246,-0.282 0,-0.15374 -1.83307,-1.33694 -4.07359,-2.62933 -9.66313,-5.57394 -16.36695,-10.82376 -18.93861,-14.83135 -3.85805,-6.01224 -5.12328,-13.09906 -6.00714,-33.64362 -0.50366,-11.70717 -0.93851,-15.93792 -2.16449,-21.0637 -0.5228,-2.18587 -1.05791,-4.51369 -1.18915,-5.1728 -0.13122,-0.65913 0.0481,-3.25225 0.39856,-5.76263 0.87068,-6.23781 0.83619,-8.99306 -0.14507,-11.61573 -0.80733,-2.15779 -2.58416,-12.00596 -3.07869,-17.06347 -0.20777,-2.12482 -0.37745,-2.60838 -0.85172,-2.42638 -0.4985,0.19129 -0.51406,0.10174 -0.0973,-0.56564 0.40105,-0.64221 0.3339,-2.40587 -0.35318,-9.27574 -0.46661,-4.66555 -1.48228,-16.63022 -2.25713,-26.58806 -1.38883,-17.84879 -1.42492,-18.13614 -2.54048,-20.29105 -2.70273,-5.2208 -3.55518,-10.63715 -4.60066,-29.227994 -0.97911,-17.410955 -1.14536,-18.666223 -2.79206,-21.092773 -1.9261,-2.838269 -2.75003,-7.782002 -4.2317,-25.38968 -0.01,-0.118412 -0.0222,-0.174555 -0.0365,-0.175238 z m 31.0776,0.851175 c -0.46126,0.02444 -8.00358,7.187548 -18.38765,17.470725 -6.51626,6.45296 -7.43608,7.515066 -7.08136,8.177875 0.22422,0.418958 0.5218,1.731645 0.66127,2.917035 0.13947,1.185391 0.328,2.391353 0.41867,2.67986 0.0907,0.288514 0.9958,-0.695205 2.01151,-2.185943 2.29455,-3.367668 3.71232,-5.103193 10.49287,-12.844808 2.96749,-3.388099 6.20207,-7.23312 7.18788,-8.544638 2.02952,-2.700112 4.71936,-7.060401 4.71936,-7.649997 0,-0.0142 -0.008,-0.02087 -0.0225,-0.02013 z m 19.19345,27.340352 c -0.75802,0.191762 -15.83793,15.714617 -28.51048,29.358402 -12.79941,13.780366 -12.12695,12.692616 -10.31519,16.681756 0.52997,1.16688 1.13034,2.06102 1.33396,1.98708 0.20361,-0.0739 1.66229,-1.92277 3.24169,-4.10863 3.93318,-5.44344 12.75061,-16.714422 24.56242,-31.397095 5.45126,-6.776192 9.82211,-12.409773 9.71287,-12.519063 -0.004,-0.0048 -0.0133,-0.0055 -0.0252,-0.0026 z m -88.765809,4.465083 c -0.02475,0.0016 -0.04521,0.0053 -0.06141,0.01062 -0.205843,0.06862 1.298624,0.909832 3.343307,1.869166 7.203144,3.379604 24.429582,12.037207 28.244502,14.195064 2.12327,1.200996 5.34261,3.214872 7.1539,4.475402 1.81131,1.260529 3.3448,2.163465 3.40798,2.006366 0.13435,-0.334068 -0.96749,-7.954863 -1.17013,-8.093108 -0.0754,-0.05144 -1.86427,-0.570946 -3.97551,-1.154373 -2.11124,-0.583428 -9.62268,-3.279923 -16.692077,-5.992199 C 78.53904,75.92951 73.565658,74.129662 72.798311,74.179502 Z M 59.475073,109.39966 c -0.03737,-0.004 -0.06229,0.0114 -0.0739,0.0462 -0.08118,0.24352 0.440898,1.90327 1.160349,3.68807 0.719454,1.78479 1.586294,4.30213 1.926219,5.59418 l 0.618075,2.34922 2.782014,1.10575 c 1.530108,0.60819 2.854722,1.03628 2.943665,0.95143 0.08894,-0.0849 -0.487133,-1.45268 -1.280162,-3.03957 -1.464066,-2.92967 -7.316356,-10.62379 -8.076262,-10.69527 z m 18.300437,2.44486 c -0.163838,0 0.948521,1.29669 2.471753,2.88145 3.032343,3.15481 5.562796,6.37143 7.870601,10.00465 1.610062,2.53476 5.391242,9.87516 5.391242,10.46598 0,0.19788 1.830192,1.18302 4.06679,2.1892 2.236599,1.00618 4.127524,1.76824 4.202364,1.69339 0.18709,-0.18709 -3.986099,-7.01151 -6.134828,-10.0321 -3.291026,-4.62636 -7.389285,-9.30602 -10.39778,-11.873 -2.961792,-2.52714 -6.889837,-5.32957 -7.470142,-5.32957 z m 18.808476,2.34325 c -0.419293,0.0965 -5.512692,6.4079 -5.785718,7.19547 -0.07023,0.20262 0.370233,0.99255 0.978868,1.75533 0.608633,0.76278 1.147352,1.34586 1.197302,1.29593 0.308481,-0.30849 3.732493,-9.95048 3.635087,-10.23641 -0.0036,-0.0102 -0.01203,-0.0134 -0.0255,-0.0103 z m -53.626307,2.85265 c -0.13581,-10e-4 -0.267725,-10e-4 -0.395568,0.001 -1.517783,0.0271 -1.08031,0.2469 3.851622,1.93464 9.868017,3.37689 18.543571,7.10052 25.739065,11.04738 1.697043,0.93085 3.351231,1.69257 3.676116,1.69257 0.324886,0 0.590907,0.1542 0.590907,0.34286 0,0.30709 6.14405,4.42622 6.602121,4.42622 0.103006,0 0.58231,0.37087 1.06499,0.82402 1.802546,1.69222 6.841627,4.51767 12.334319,6.91591 10.892799,4.75606 15.075359,7.15428 18.331949,10.51189 0.86407,0.89086 1.62411,1.61975 1.68905,1.61975 0.0649,0 0.11791,-2.15673 0.11791,-4.79272 v -4.79274 l -5.4646,-2.59623 c -3.00556,-1.42791 -8.0416,-3.75316 -11.191083,-5.16711 -3.149485,-1.41394 -11.018688,-5.19781 -17.487026,-8.4088 -13.086674,-6.49645 -14.290368,-7.04172 -20.451335,-9.26054 -6.837887,-2.46262 -14.798325,-4.25498 -19.008437,-4.29827 z m 151.690141,6.82192 c -0.76606,-0.0215 -5.74308,6.95598 -6.33697,8.94672 -0.14672,0.49183 -0.17121,0.8941 -0.0546,0.8941 0.5782,0 3.02082,-1.38818 3.02082,-1.71674 0,-0.20747 0.80687,-2.08 1.79283,-4.16135 0.98594,-2.08135 1.72321,-3.85358 1.6385,-3.93829 -0.0156,-0.0156 -0.0358,-0.0238 -0.0605,-0.0244 z m 9.03257,4.27679 c -0.80737,0 -7.07911,2.3593 -10.61484,3.99317 -13.03251,6.02238 -36.20862,20.73647 -57.42877,36.46042 -3.38809,2.51054 -6.22579,4.62066 -6.30599,4.68922 -0.18512,0.15822 0.57736,6.67931 1.40161,11.98792 0.34788,2.24051 0.77677,4.07359 0.95306,4.07359 0.17628,0 0.73199,-0.58117 1.23506,-1.29158 2.56154,-3.61727 11.38661,-13.35973 19.00137,-20.97677 16.84852,-16.85355 32.68735,-29.16952 46.26213,-35.97247 3.25229,-1.62987 5.72568,-2.9635 5.49637,-2.9635 z m -128.236448,4.26676 -3.387047,1.09759 c -3.385013,1.09677 -8.752478,3.56902 -8.752478,4.03148 0,0.13471 0.93893,0.11852 2.086512,-0.0359 4.978702,-0.66983 9.09778,-1.00075 12.618497,-1.01391 l 3.775552,-0.0142 -3.170518,-2.03245 z m 83.630498,1.12584 c -0.10878,-0.0215 -1.01339,1.33889 -2.10363,3.1727 -1.16291,1.95605 -3.29411,5.37116 -4.73621,7.58914 -3.62881,5.58114 -5.6863,9.42815 -7.07105,13.22243 -0.6494,1.7794 -1.18072,3.40895 -1.18072,3.62124 0,0.67082 0.51731,0.40446 3.72529,-1.91861 l 3.12895,-2.26581 0.95768,-3.33353 c 0.52667,-1.83348 1.95461,-5.76808 3.1735,-8.74351 2.29328,-5.59808 4.11705,-10.61298 4.11705,-11.32123 0,-0.014 -0.004,-0.0214 -0.0109,-0.0228 z m 20.88086,9.87941 c -0.0418,-0.003 -0.0729,1.8e-4 -0.0924,0.008 -0.30989,0.11893 -1.53898,0.97713 -2.73149,1.90722 l -2.16827,1.6912 5.51512,0.30836 c 3.03324,0.1696 6.83794,0.54831 8.45499,0.84167 5.26937,0.95597 5.02345,0.65727 -1.78984,-2.17372 -3.46347,-1.4391 -6.55934,-2.5474 -7.18814,-2.58232 z m -62.4323,14.65992 c 0.25435,0.0179 1.23554,1.27757 1.9762,2.55814 0.15805,0.27323 0.14261,0.49453 -0.0342,0.49174 -0.40993,-0.006 -2.2285,-2.79107 -1.98299,-3.03658 0.0102,-0.0102 0.0241,-0.0145 0.041,-0.0133 z m -78.263171,15.3728 3.66715,0.96527 c 3.039161,0.80008 4.056511,1.28277 5.943024,2.81952 3.012617,2.45405 6.85566,4.3321 15.030755,7.3457 7.19977,2.65407 12.824115,5.28138 15.635244,7.30361 1.53466,1.10398 2.368462,1.33535 7.551104,2.09412 3.204303,0.46913 6.084694,0.87141 6.400808,0.89411 0.331091,0.0238 -0.0063,-0.56236 -0.79494,-1.3826 -8.400568,-8.73321 -33.66908,-18.7014 -50.253662,-19.82457 z m -24.958525,3.48784 0.814771,1.14432 c 0.448146,0.62936 2.019171,2.48293 3.491102,4.11923 1.471934,1.63629 3.123122,3.64592 3.669326,4.46562 l 0.993264,1.49017 3.225943,-0.007 3.225939,-0.007 -2.782014,-1.6165 c -3.246982,-1.88662 -4.243341,-2.74285 -5.788164,-4.97421 -1.12217,-1.62087 -4.055623,-3.7741 -5.896296,-4.32788 z m 19.1834,11.85778 c -6.392881,0.008 -12.582898,0.2448 -15.884648,0.70828 -4.324774,0.60707 -11.3504379,2.13705 -13.504452,2.94095 -0.6483382,0.24197 4.3123943,0.44843 14.506411,0.6034 15.457331,0.23499 20.653977,0.55305 27.414249,1.67872 3.87663,0.6455 4.733982,0.91256 8.346042,2.5989 1.967055,0.91835 3.637287,1.25875 9.538452,1.94388 13.626744,1.58206 20.287973,2.46672 24.441787,3.24577 12.036525,2.25746 19.759005,5.32763 23.388205,9.29856 1.12615,1.23219 2.07388,2.53881 2.10607,2.90372 0.0877,0.99472 0.60702,-5.73477 0.93785,-12.15364 l 0.29178,-5.66347 -3.12813,-0.008 c -1.72047,-0.004 -5.81056,-0.27047 -9.08936,-0.59118 -7.821968,-0.7651 -7.460353,-0.78042 -7.14793,0.3013 0.241363,0.83573 0.197748,0.82478 -0.668614,-0.16656 -0.843884,-0.96561 -1.390074,-1.11811 -6.093532,-1.70343 -2.841629,-0.35361 -5.584211,-0.733 -6.09435,-0.84303 -0.641767,-0.13839 -0.838837,-0.057 -0.640079,0.26462 0.158031,0.25571 0.128344,0.39131 -0.06602,0.3013 -0.194368,-0.09 -0.800527,-0.37263 -1.346995,-0.62813 -1.065181,-0.49802 -20.059899,-3.24175 -30.204686,-4.36293 -4.113465,-0.45461 -10.70917,-0.67651 -17.102049,-0.66888 z m 16.352755,7.44651 c -0.827805,0.0152 -1.805099,0.5176 -4.682152,2.04739 -8.845583,4.70339 -14.181866,8.72102 -18.051305,13.5903 -2.078925,2.61611 -3.939918,5.58277 -3.939918,6.28073 0,0.12515 2.117514,-1.37937 4.705516,-3.34332 10.24974,-7.77812 16.678141,-11.41513 25.300299,-14.31405 2.623042,-0.88192 4.393477,-1.60622 3.934213,-1.60944 -0.459265,-0.004 -1.657042,-0.44294 -2.661931,-0.97723 -1.00489,-0.5343 -2.536831,-1.18413 -3.404165,-1.44399 -0.478965,-0.1435 -0.824283,-0.23732 -1.200557,-0.23039 z"
       style="fill:#001d3a;fill-opacity:0.86274522;stroke:none;stroke-width:0.09763648;stroke-linecap:round;stroke-linejoin:round;stroke-miterlimit:4;stroke-dasharray:none;stroke-dashoffset:0;stroke-opacity:1;paint-order:normal" />
    <path
       transform="scale(0.26458333)"
       id="path1212"
       d=""
       style="fill:#001d3a;fill-opacity:0.86274522;stroke:none;stroke-width:0.70191228;stroke-linecap:round;stroke-linejoin:round;stroke-miterlimit:4;stroke-dasharray:none;stroke-dashoffset:0;stroke-opacity:1;paint-order:normal" />
  </g>
</svg>
